<?xml version="1.0" standalone="no"?>
<!DOCTYPE svg PUBLIC "-//W3C//DTD SVG 20010904//EN"
 "http://www.w3.org/TR/2001/REC-SVG-20010904/DTD/svg10.dtd">
<svg version="1.0" xmlns="http://www.w3.org/2000/svg"
 width="972.000000pt" height="972.000000pt" viewBox="0 0 972.000000 972.000000"
 preserveAspectRatio="xMidYMid meet">
<metadata>
Created by potrace 1.14, written by Peter Selinger 2001-2017
</metadata>
<g transform="translate(0.000000,972.000000) scale(0.100000,-0.100000)"
fill="#000000" stroke="none">
<path d="M0 4855 l0 -4205 4860 0 4860 0 0 4205 0 4205 -4860 0 -4860 0 0
-4205z m7280 3640 c90 -46 88 -170 -3 -225 -52 -32 -93 -26 -138 19 -35 35
-39 44 -39 91 0 47 4 56 39 91 43 44 88 51 141 24z m-1909 -224 c189 -28 316
-55 455 -97 276 -84 541 -202 744 -332 30 -19 73 -47 95 -61 60 -38 243 -180
303 -234 29 -26 57 -45 62 -42 6 3 8 0 6 -7 -3 -7 17 -31 43 -53 26 -22 69
-66 95 -97 27 -32 53 -55 58 -52 4 3 7 1 6 -4 -2 -5 27 -48 64 -94 37 -47 72
-97 77 -110 10 -27 -13 -163 -44 -266 -43 -142 -130 -307 -223 -425 -30 -38
-55 -76 -57 -85 -1 -9 -7 -16 -13 -15 -6 1 -26 -17 -45 -40 -19 -23 -84 -91
-145 -151 -61 -60 -108 -114 -105 -119 3 -6 1 -7 -6 -3 -6 4 -14 0 -17 -8 -3
-9 -12 -16 -18 -16 -16 0 -68 -54 -61 -63 3 -4 2 -5 -2 -2 -10 7 -63 -46 -57
-57 3 -5 1 -7 -4 -6 -15 4 -103 -72 -96 -83 3 -5 1 -8 -4 -7 -13 4 -141 -119
-133 -128 3 -4 1 -4 -5 -1 -14 8 -197 -176 -187 -188 4 -4 3 -5 -4 -2 -12 7
-28 -7 -215 -190 -102 -99 -124 -123 -95 -107 7 4 8 3 4 -2 -5 -5 -14 -9 -21
-9 -20 0 -357 -326 -349 -338 3 -5 2 -7 -4 -4 -5 3 -44 -26 -86 -66 -42 -40
-124 -117 -182 -172 -59 -55 -113 -104 -121 -108 -8 -5 -11 -14 -8 -20 4 -7 3
-9 -1 -4 -11 9 -96 -73 -89 -85 3 -5 1 -7 -4 -6 -12 4 -112 -89 -104 -96 3 -3
-1 -6 -10 -6 -19 0 -51 -34 -41 -44 5 -4 1 -6 -7 -4 -9 2 -14 -3 -12 -12 2 -8
0 -12 -4 -8 -10 11 -35 -12 -27 -26 3 -6 2 -8 -2 -3 -12 10 -66 -43 -58 -57 3
-6 3 -8 -2 -4 -11 11 -36 -12 -28 -25 3 -6 1 -7 -5 -3 -7 4 -40 -19 -80 -56
-37 -35 -89 -82 -114 -104 -26 -23 -44 -45 -40 -49 4 -4 2 -5 -4 -3 -10 3
-127 -79 -171 -121 -12 -12 -25 -21 -28 -21 -4 0 -26 -16 -49 -35 -24 -19 -46
-35 -50 -35 -4 0 -35 -19 -69 -42 -34 -23 -80 -54 -102 -69 -41 -27 -198 -108
-340 -175 -254 -119 -579 -181 -815 -155 -300 32 -522 153 -693 376 -39 52
-76 104 -86 123 -7 12 -17 20 -23 16 -6 -4 -8 -3 -4 4 3 6 -18 57 -48 114
-136 257 -242 610 -277 923 -16 143 -16 549 0 690 45 397 144 772 283 1070 33
72 61 138 61 147 1 9 4 15 8 13 3 -2 16 14 28 35 12 22 26 40 30 40 5 0 11
-21 15 -46 9 -71 59 -154 117 -198 56 -42 144 -76 195 -76 65 0 145 39 205 99
84 86 105 129 144 299 37 165 50 197 98 244 55 53 109 70 226 74 58 2 119 9
136 15 49 20 116 72 111 86 -3 7 0 12 6 10 6 -1 23 20 37 48 51 98 27 234 -53
302 -17 15 -55 37 -84 51 -50 23 -62 24 -188 20 -74 -2 -134 -1 -134 3 0 6 57
59 64 59 2 0 53 33 113 73 175 117 470 255 738 346 237 80 551 147 795 171
158 15 574 4 731 -19z m-2884 -135 l37 -34 8 -158 c7 -156 8 -161 44 -233 44
-90 100 -148 180 -187 53 -26 72 -30 184 -34 70 -3 135 -11 147 -18 59 -33 70
-103 24 -154 l-29 -33 -129 -6 c-100 -4 -138 -10 -176 -27 -27 -12 -46 -26
-42 -32 3 -6 0 -7 -9 -4 -24 9 -108 -83 -144 -156 -35 -71 -52 -145 -52 -222
0 -43 -4 -54 -34 -84 -26 -26 -42 -34 -71 -34 -20 0 -45 4 -55 10 -31 17 -60
74 -60 121 0 61 -25 169 -49 217 -32 64 -114 145 -177 177 -49 25 -71 30 -153
33 -123 4 -135 7 -166 40 -36 38 -34 91 4 134 28 31 31 32 138 38 87 5 120 12
165 32 80 37 139 95 183 182 40 78 39 77 54 383 1 7 17 28 36 48 48 48 91 48
142 1z m5198 -202 c21 -22 25 -37 25 -84 l0 -58 64 -4 c94 -6 128 -42 90 -96
-13 -19 -24 -22 -85 -22 l-69 0 0 -65 c0 -57 -3 -69 -25 -90 -31 -32 -48 -31
-74 1 -16 21 -21 41 -21 90 l0 64 -72 -1 c-78 -1 -98 11 -98 58 0 41 37 63
107 63 l63 0 0 60 c0 51 4 65 25 85 31 31 40 31 70 -1z m409 -430 c21 -20 20
-23 -6 -51 -27 -29 -46 -29 -59 1 -22 49 28 88 65 50z m-210 -340 c20 -19 20
-53 2 -77 -20 -27 -67 -19 -85 14 -13 24 -13 29 2 53 20 30 57 35 81 10z m593
3 c34 -19 73 -77 73 -109 0 -79 -64 -148 -136 -148 -36 0 -51 6 -81 34 -33 30
-37 39 -41 94 -4 51 -1 66 18 92 12 17 32 35 44 40 31 13 98 11 123 -3z
m-7226 -76 c19 -15 24 -30 27 -85 l4 -66 64 0 c69 0 104 -20 104 -60 0 -40
-35 -60 -105 -60 l-65 0 0 -59 c0 -48 -5 -65 -23 -87 -19 -21 -29 -26 -49 -21
-31 8 -48 49 -48 118 l0 49 -67 0 c-38 0 -73 4 -79 8 -19 13 -33 48 -27 70 6
24 17 28 108 37 33 4 62 9 64 11 3 3 6 32 7 66 1 51 5 65 24 80 28 22 32 22
61 -1z m1589 -75 c0 -2 -8 -10 -17 -17 -16 -13 -17 -12 -4 4 13 16 21 21 21
13z m4927 -506 c185 -398 293 -901 293 -1365 0 -200 -11 -320 -55 -575 -23
-137 -39 -205 -100 -428 -35 -125 -142 -374 -230 -534 -31 -54 -53 -103 -50
-109 4 -5 2 -8 -3 -7 -6 2 -36 -35 -68 -82 -61 -90 -207 -288 -243 -330 -290
-336 -715 -645 -1114 -811 -104 -43 -251 -97 -316 -115 -417 -116 -625 -148
-981 -147 -347 0 -504 23 -429 63 17 10 24 9 31 -1 8 -11 9 -10 5 2 -7 21 35
62 55 54 8 -3 26 3 39 15 21 17 21 19 4 14 -19 -7 -19 -6 2 16 12 12 33 23 48
23 16 0 22 2 15 7 -9 6 -7 10 6 18 15 8 27 6 52 -10 18 -11 35 -18 38 -15 3 3
-4 8 -15 12 -12 3 -21 11 -21 16 0 13 24 11 38 -3 8 -8 12 -9 12 -1 0 6 -6 14
-12 17 -9 3 -8 8 5 16 9 6 17 16 17 21 0 6 -7 3 -16 -5 -8 -9 -23 -16 -32 -16
-11 0 -7 6 13 19 23 14 36 16 58 8 19 -6 32 -6 39 1 8 8 4 9 -13 5 l-24 -5 22
16 c14 10 20 23 17 34 -5 13 -4 14 4 3 6 -9 12 -10 16 -2 4 6 27 25 52 42 34
23 49 28 57 20 8 -8 5 -11 -10 -11 -11 0 -27 -7 -34 -17 -13 -15 -12 -15 7 -5
11 6 30 9 41 6 12 -3 24 0 28 7 6 8 4 10 -5 4 -10 -6 -12 -4 -7 8 3 10 2 17
-3 17 -6 0 -10 5 -10 12 0 6 7 4 18 -5 23 -21 51 -22 59 -1 3 8 11 13 19 10 7
-3 45 11 84 30 43 22 78 33 90 29 26 -8 57 10 75 45 9 18 23 30 36 30 11 0 36
7 57 16 32 13 35 17 19 25 -9 6 -27 7 -40 4 -17 -5 -19 -4 -7 4 8 6 28 8 45 5
28 -6 29 -5 15 12 -14 16 -13 17 5 10 11 -4 26 -9 33 -10 8 -1 17 -8 21 -15 6
-9 10 -6 14 9 3 12 15 24 26 27 23 6 29 23 9 24 -10 0 -10 2 0 6 6 2 9 10 6
15 -4 7 -2 8 5 4 6 -4 9 -12 6 -17 -7 -11 1 -11 35 -2 l25 7 -25 7 c-23 6 -24
7 -5 14 11 4 27 14 35 21 9 7 42 19 75 27 40 10 51 15 32 16 -18 1 -26 5 -21
12 3 6 19 9 35 5 22 -4 29 -2 29 9 0 18 17 20 23 3 2 -7 8 -9 13 -5 5 4 2 12
-6 18 -13 8 -13 10 0 19 14 9 52 15 73 11 5 -1 6 3 3 8 -4 5 4 17 16 25 12 9
19 18 15 22 -3 3 -18 -3 -33 -15 -15 -11 -31 -21 -37 -21 -15 0 52 48 77 56
12 4 33 15 47 25 20 14 29 16 39 6 10 -10 12 -8 6 7 -4 13 -2 17 7 13 7 -3 19
4 25 14 9 14 20 18 40 14 21 -4 23 -3 7 3 -18 8 -17 11 15 28 19 10 46 19 60
19 17 0 25 6 25 17 0 25 6 27 59 17 34 -6 53 -6 60 2 8 8 5 10 -9 9 -36 -4
-40 0 -16 17 23 16 25 15 43 -7 21 -26 38 -18 20 10 -12 20 -6 54 9 44 5 -3 9
-14 9 -25 0 -10 5 -19 11 -19 6 0 8 9 4 20 -5 15 0 23 17 30 21 9 20 10 -7 5
-24 -4 -27 -3 -12 5 9 6 27 10 39 8 12 -2 23 3 25 10 3 6 1 12 -4 12 -5 0 -8
12 -8 26 1 17 18 42 46 70 45 44 61 53 56 32 -3 -19 39 -21 57 -3 9 9 16 12
16 6 0 -6 5 -11 10 -11 16 0 11 18 -11 39 -17 15 -19 23 -10 38 9 16 10 16 11
-7 1 -24 1 -25 16 -5 9 12 11 21 4 23 -5 2 -10 8 -10 14 0 6 8 4 18 -5 13 -12
17 -27 15 -49 l-4 -33 15 25 c8 14 15 21 16 16 0 -6 7 -1 15 10 8 10 15 38 15
61 0 36 2 40 20 36 21 -6 28 12 8 20 -7 2 -9 8 -5 13 4 5 12 2 17 -6 8 -13 10
-12 10 3 0 9 -5 17 -11 17 -5 0 -7 5 -3 11 4 7 10 7 16 1 14 -14 -1 -72 -18
-72 -8 0 -14 -4 -14 -9 0 -5 11 -8 25 -7 18 1 23 5 19 18 -2 9 0 19 6 23 5 3
10 14 10 24 0 9 11 27 25 39 14 12 25 32 25 44 0 19 2 20 10 8 9 -13 13 -12
30 9 18 21 25 22 66 16 78 -11 201 28 259 82 74 69 121 182 112 270 -12 114
-110 239 -208 264 -27 7 -49 16 -49 19 0 13 52 135 87 205 42 82 146 191 220
228 26 14 82 35 123 47 107 32 179 71 250 136 70 65 104 119 132 206 36 118
19 307 -32 358 -11 11 -20 22 -20 25 0 3 0 8 0 13 -1 4 -12 21 -26 37 -15 17
-23 23 -18 15 4 -9 3 -12 -2 -7 -5 5 -9 14 -9 20 0 18 -137 108 -158 103 -9
-2 -15 -1 -12 4 5 8 -56 26 -123 35 -64 8 -167 -12 -247 -49 -81 -38 -166
-117 -209 -195 -96 -177 -64 -407 77 -555 l47 -50 -64 -66 c-80 -82 -134 -163
-196 -295 -28 -58 -50 -107 -50 -110 0 -3 -21 -49 -47 -103 -47 -96 -88 -168
-145 -249 -16 -24 -26 -48 -23 -53 4 -6 2 -9 -3 -8 -5 2 -41 -37 -79 -87 -84
-108 -274 -300 -381 -385 -42 -34 -84 -67 -93 -74 -9 -7 -32 -24 -52 -38 -20
-14 -35 -28 -32 -31 3 -4 2 -5 -1 -3 -5 4 -155 -91 -291 -185 -23 -16 -44 -29
-48 -29 -3 0 -25 -13 -48 -28 -38 -26 -246 -149 -357 -210 -25 -14 -135 -78
-245 -142 -110 -64 -227 -131 -260 -150 -33 -18 -140 -83 -238 -144 -98 -61
-186 -115 -195 -121 -43 -25 -103 -63 -177 -110 -172 -111 -212 -135 -223
-135 -37 0 -491 243 -499 267 -4 11 100 73 124 73 7 0 13 5 13 11 0 6 9 8 23
4 13 -4 17 -3 10 2 -12 8 67 66 187 137 25 15 56 35 70 46 14 10 78 57 142
104 159 116 184 143 197 208 6 29 12 81 12 115 l2 61 46 31 c36 22 56 29 84
26 l37 -3 -23 19 -22 18 30 -2 c23 -2 30 2 29 15 -1 14 76 81 153 133 8 6 36
30 63 55 26 25 92 86 146 135 54 50 112 103 129 119 16 15 66 60 110 100 43
39 109 99 145 132 36 34 81 76 100 94 73 68 298 278 380 356 346 327 1364
1311 1490 1440 146 150 287 328 284 359 -1 8 3 13 9 12 16 -3 157 283 206 418
64 175 56 168 103 88 22 -37 55 -102 75 -143z m-6372 -120 c15 -6 32 -24 41
-45 12 -30 12 -40 0 -69 -17 -42 -63 -61 -104 -44 -15 6 -29 11 -32 10 -3 0
-6 19 -8 44 -4 59 20 94 75 113 1 1 13 -3 28 -9z m7155 -67 c22 -28 22 -30 17
-353 -5 -320 -5 -324 -27 -342 -28 -23 -42 -23 -71 1 l-24 19 0 330 c0 310 1
331 19 351 26 29 60 26 86 -6z m-7421 -503 c70 -35 92 -125 46 -192 -29 -43
-86 -66 -132 -53 -15 5 -31 9 -34 9 -3 1 -19 16 -35 35 -24 28 -29 43 -27 80
2 67 6 90 14 85 4 -2 14 5 22 15 29 42 88 51 146 21z m6377 -379 c-3 -5 4 -11
17 -15 36 -9 98 -67 118 -110 29 -64 25 -140 -11 -203 -17 -29 -39 -57 -50
-63 -11 -6 -18 -15 -15 -21 4 -5 3 -9 -2 -7 -4 1 -26 -4 -48 -10 -48 -14 -115
-15 -149 -3 -13 6 -45 30 -70 54 -25 24 -47 43 -49 41 -1 -1 -3 7 -4 19 -1 12
-5 45 -9 73 -4 37 -2 66 10 100 31 91 88 133 196 144 36 4 66 8 68 9 2 0 1 -3
-2 -8z m918 -237 c19 -18 20 -28 6 -55 -22 -39 -87 -12 -72 31 13 41 40 51 66
24z m-7106 -34 c26 -24 29 -66 6 -98 -31 -45 -114 -15 -114 42 0 32 37 76 64
76 12 0 32 -9 44 -20z m5754 -1080 c20 -6 50 -26 67 -46 79 -89 5 -234 -118
-234 -38 0 -49 5 -82 40 -22 23 -41 54 -45 75 -11 61 26 137 79 160 39 17 52
18 99 5z m1140 -277 c15 -13 18 -32 18 -109 0 -88 -1 -94 -25 -110 -30 -20
-63 -10 -76 23 -5 13 -9 57 -9 98 0 68 2 75 26 94 32 25 42 26 66 4z m-6536
-258 c16 -24 16 -27 -1 -45 -23 -25 -51 -26 -65 0 -29 54 32 96 66 45z m5020
-84 c-4 -5 0 -11 6 -14 7 -2 10 -8 5 -12 -10 -12 -31 11 -23 24 4 6 9 11 12
11 3 0 3 -4 0 -9z m24 -58 c0 -5 -5 -15 -10 -23 -8 -12 -10 -11 -10 8 0 12 5
22 10 22 6 0 10 -3 10 -7z m-110 -83 c0 -5 -2 -10 -4 -10 -2 0 -12 -3 -22 -7
-16 -6 -17 -5 -4 10 17 19 30 22 30 7z m-160 -110 c0 -5 -2 -10 -4 -10 -2 0
-12 -3 -22 -7 -16 -6 -17 -5 -4 10 17 19 30 22 30 7z m-2080 -10 c0 -5 -4 -10
-10 -10 -5 0 -10 5 -10 10 0 6 5 10 10 10 6 0 10 -4 10 -10z m2018 -34 c-7 -8
-15 -12 -17 -11 -5 6 10 25 20 25 5 0 4 -6 -3 -14z m-2488 -67 c0 -9 -4 -8
-15 1 -12 10 -15 10 -15 -3 0 -9 7 -20 16 -25 27 -15 -2 -54 -74 -101 -37 -25
-98 -65 -137 -91 -112 -75 -290 -174 -425 -238 -155 -74 -199 -90 -208 -76 -4
5 -30 28 -59 50 -117 92 -183 158 -177 176 3 10 1 18 -4 18 -6 0 -12 -5 -14
-12 -3 -8 -6 -7 -10 3 -5 12 2 15 35 15 27 -1 42 -6 44 -16 4 -13 3 -13 -5 -1
-9 12 -12 12 -25 0 -12 -13 -9 -15 24 -16 21 -1 41 2 44 7 3 5 13 6 22 3 11
-4 14 -3 9 6 -6 8 -1 10 18 5 15 -3 38 0 57 10 18 9 48 16 67 16 43 0 104 20
115 37 4 7 21 13 37 13 22 0 30 5 31 18 0 14 2 14 9 -3 5 -11 9 -14 9 -7 1 20
22 14 48 -14 l24 -26 -3 28 c-3 26 0 29 25 27 15 -1 27 2 27 8 0 5 -11 9 -24
9 -25 0 -42 25 -25 36 6 3 13 3 16 0 4 -3 0 -6 -8 -6 -26 -1 53 -30 81 -30 19
0 33 8 44 25 9 14 25 25 36 25 24 0 37 20 13 21 -11 0 -5 6 16 15 34 15 57 10
31 -6 -9 -6 -10 -10 -3 -10 6 0 19 10 27 22 l16 22 1 -24 c1 -25 1 -25 11 3 6
17 15 26 23 23 7 -2 16 1 19 9 3 8 -3 17 -15 20 -11 4 -18 9 -16 12 3 2 19 -3
36 -12 19 -9 31 -11 31 -5 0 7 8 9 21 5 15 -5 19 -4 14 5 -4 7 5 5 23 -4 48
-25 62 -21 63 17 0 32 0 32 11 7 6 -14 10 -29 9 -33 -1 -5 3 -6 9 -2 6 3 8 11
4 16 -3 5 0 22 7 38 11 24 15 26 26 16 7 -8 13 -19 13 -26z m2415 11 c-3 -5
-11 -10 -16 -10 -6 0 -7 5 -4 10 3 6 11 10 16 10 6 0 7 -4 4 -10z m-4284 -23
c76 -50 87 -140 24 -196 -68 -59 -146 -47 -186 29 -26 48 -24 88 7 133 41 61
97 73 155 34z m4179 -47 c0 -5 -4 -10 -10 -10 -5 0 -10 5 -10 10 0 6 5 10 10
10 6 0 10 -4 10 -10z m-370 -204 c0 -2 -7 -7 -16 -10 -8 -3 -12 -2 -9 4 6 10
25 14 25 6z m1727 -108 c14 -13 23 -33 23 -52 0 -36 -6 -46 -40 -69 -65 -45
-146 14 -124 91 4 15 7 30 6 34 -1 4 4 5 12 2 8 -3 17 -1 21 5 12 20 77 13
102 -11z m-2017 -48 c-8 -5 -19 -10 -25 -10 -5 0 -3 5 5 10 8 5 20 10 25 10 6
0 3 -5 -5 -10z m-15 -40 c3 -5 -1 -10 -10 -10 -9 0 -13 5 -10 10 3 6 8 10 10
10 2 0 7 -4 10 -10z m-2990 -36 c82 -39 63 -140 -29 -154 -25 -4 -44 -4 -43
-1 1 3 -8 16 -20 29 -36 35 -29 98 15 125 34 21 36 21 77 1z m2785 -78 c0 -7
-13 -16 -30 -19 -19 -4 -30 -13 -31 -24 0 -14 -2 -15 -6 -3 -3 8 -11 18 -17
22 -6 4 1 8 15 8 15 0 32 7 39 15 16 19 30 19 30 1z m-200 -66 c-8 -5 -19 -10
-25 -10 -5 0 -3 5 5 10 8 5 20 10 25 10 6 0 3 -5 -5 -10z m-35 -30 c13 -5 14
-9 5 -9 -8 0 -24 4 -35 9 -13 5 -14 9 -5 9 8 0 24 -4 35 -9z m2079 -215 c16
-12 18 -20 10 -43 -8 -22 -16 -27 -45 -27 -29 -1 -35 3 -34 20 3 60 30 80 69
50z m-5034 -22 c59 -53 29 -143 -47 -143 -51 0 -87 40 -80 88 7 41 46 82 77
82 11 0 34 -12 50 -27z m485 -73 c10 -16 -4 -44 -32 -64 -14 -11 -23 -14 -19
-8 4 7 3 12 -2 12 -5 0 -14 11 -20 25 -10 21 -9 28 8 45 16 16 25 18 40 10 10
-5 22 -15 25 -20z m1955 10 c0 -5 -5 -10 -11 -10 -5 0 -7 5 -4 10 3 6 8 10 11
10 2 0 4 -4 4 -10z m69 -448 c70 -37 101 -87 77 -125 -9 -13 -27 -30 -41 -37
-22 -12 -30 -10 -72 13 -87 46 -164 41 -206 -14 -17 -24 -18 -29 -4 -55 16
-32 43 -44 152 -69 38 -9 80 -23 93 -31 12 -8 28 -12 34 -8 6 4 9 3 5 -2 -3
-5 10 -25 29 -44 47 -48 69 -123 53 -182 -6 -24 -18 -56 -27 -73 -9 -16 -15
-34 -13 -40 1 -5 0 -7 -4 -4 -3 4 -17 -4 -31 -18 -73 -73 -222 -91 -326 -40
-55 27 -128 97 -128 122 0 15 67 85 82 85 5 0 28 -14 49 -31 22 -17 44 -27 50
-23 8 4 9 3 5 -4 -9 -16 66 -34 108 -26 39 7 72 37 81 75 5 21 0 34 -22 58
-23 25 -47 35 -125 55 -54 14 -108 32 -121 41 -13 8 -27 13 -30 10 -4 -3 -5
-2 -2 2 8 11 -27 43 -39 36 -6 -3 -8 -3 -4 1 3 4 -2 26 -13 49 -93 206 170
393 390 279z m-1951 14 c15 -8 46 -36 68 -63 23 -27 70 -79 105 -117 l64 -68
33 45 c59 83 143 176 178 198 38 23 65 19 102 -14 35 -32 28 -66 -27 -128 -82
-93 -191 -223 -191 -229 0 -3 46 -58 103 -121 126 -141 137 -156 137 -192 0
-34 -40 -77 -71 -77 -14 0 -40 18 -67 48 -25 26 -48 46 -53 44 -5 -1 -8 2 -7
7 4 14 -113 151 -123 145 -5 -3 -8 0 -7 8 7 33 -27 3 -131 -115 -111 -125
-142 -148 -178 -131 -10 4 -22 6 -26 5 -5 -1 -6 3 -3 8 4 5 2 12 -4 16 -5 3
-10 23 -10 44 0 34 10 49 83 131 45 51 81 97 79 102 -1 5 1 8 5 5 5 -2 24 15
45 37 l36 41 -61 71 c-34 39 -91 104 -125 144 -54 62 -63 77 -57 99 3 14 7 34
8 43 1 9 5 14 9 12 4 -3 16 0 25 5 24 14 29 13 61 -3z m-294 -18 l27 -23 -3
-364 -3 -363 -44 38 c-24 22 -48 38 -53 36 -5 -1 -7 2 -4 7 7 10 -270 266
-288 266 -6 1 -10 6 -9 12 1 6 -14 26 -35 44 l-37 33 -3 -190 c-1 -104 -5
-196 -9 -204 -3 -8 -5 -19 -4 -23 1 -5 -3 -6 -8 -3 -5 4 -12 2 -16 -4 -3 -5
-21 -10 -40 -10 -24 0 -39 7 -54 26 -20 26 -21 38 -21 375 0 192 4 349 8 349
10 0 69 -50 241 -205 204 -183 206 -185 213 -185 4 0 7 79 8 176 0 97 5 184
10 194 13 25 13 33 -2 24 -6 -4 -9 -3 -5 2 3 5 28 10 55 12 40 2 55 -2 76 -20z
m1511 -3 c31 -30 32 -73 5 -108 -19 -24 -28 -26 -103 -29 l-82 -3 -5 -283 c-5
-283 -5 -284 -29 -303 -43 -35 -90 -19 -112 38 -5 13 -9 143 -9 288 l0 264
-87 3 -88 3 -18 37 c-16 32 -17 41 -5 65 23 49 44 53 286 53 l223 0 24 -25z
m1522 1 c35 -30 37 -86 5 -119 -20 -19 -32 -22 -102 -20 l-80 2 0 -279 c0
-278 0 -279 -23 -306 -31 -36 -78 -37 -106 -3 -19 23 -20 38 -21 307 l0 282
-90 0 c-85 0 -90 1 -106 26 -26 39 -22 83 9 110 27 23 32 23 257 23 226 0 230
0 257 -23z m1236 0 c48 -20 113 -80 145 -135 24 -41 27 -56 27 -136 0 -107
-18 -150 -90 -213 -25 -22 -45 -42 -45 -46 0 -17 73 -105 82 -99 7 3 8 1 4 -6
-4 -6 -3 -18 3 -25 9 -11 11 -80 2 -70 -2 2 -9 0 -15 -6 -12 -9 -102 -32 -93
-24 6 6 -54 70 -63 67 -4 -1 -7 5 -6 15 0 9 -4 16 -11 15 -7 -2 -10 3 -7 10 2
7 -15 34 -39 61 -40 46 -45 49 -79 42 l-36 -7 -4 -74 c-3 -58 -8 -79 -23 -94
-36 -35 -62 -35 -95 -2 l-30 29 0 334 c1 374 -1 366 72 379 65 12 261 2 301
-15z m861 -1 c33 -31 35 -79 4 -112 -19 -20 -31 -23 -105 -23 l-83 0 0 -285
c0 -268 -1 -286 -19 -304 -11 -11 -18 -21 -15 -23 2 -3 -13 -3 -34 -2 -25 2
-44 12 -59 29 -23 26 -23 30 -23 305 l0 280 -82 -1 c-77 -1 -84 1 -105 26 -13
14 -23 36 -23 48 0 29 26 66 54 77 11 5 120 9 242 9 l221 1 27 -25z m-1628
-136 c30 -57 68 -138 85 -179 17 -41 60 -135 95 -210 35 -75 64 -146 64 -157
0 -24 -53 -73 -79 -73 -22 0 -56 32 -76 70 l-16 30 -134 0 -134 0 -28 -42
c-36 -54 -75 -68 -112 -41 -22 18 -26 28 -27 76 0 31 2 55 4 52 4 -4 89 166
112 225 39 102 171 361 181 358 7 -2 36 -51 65 -109z"/>
<path d="M5038 7915 c-94 -19 -231 -77 -309 -130 -36 -24 -97 -77 -136 -117
l-71 -73 -58 0 c-39 0 -81 -9 -124 -25 -57 -22 -82 -42 -202 -159 -78 -75
-135 -138 -131 -145 3 -6 3 -8 -2 -4 -4 4 -22 -7 -38 -25 -16 -17 -93 -97
-171 -177 -163 -167 -324 -336 -446 -465 -47 -50 -191 -202 -320 -339 -129
-136 -234 -254 -234 -262 1 -7 -3 -11 -8 -8 -10 7 -45 -36 -40 -49 1 -5 -2 -6
-6 -3 -12 7 -104 -109 -94 -119 4 -3 2 -5 -5 -3 -15 4 -119 -113 -183 -207
-26 -38 -71 -96 -99 -128 -137 -156 -202 -331 -201 -544 2 -266 123 -509 320
-642 142 -95 273 -135 445 -134 176 0 308 39 467 135 118 71 129 80 430 367
42 41 75 78 72 83 -3 5 0 7 8 6 7 -2 12 3 10 10 -1 8 2 11 9 6 14 -8 241 215
232 229 -3 6 -1 7 6 3 14 -9 43 12 35 25 -3 5 -1 8 4 7 16 -5 334 310 326 323
-5 8 -3 9 6 4 14 -9 193 163 184 177 -3 5 -1 7 4 6 13 -4 114 90 108 101 -3 5
2 8 11 7 9 0 18 5 21 13 3 9 0 11 -8 6 -9 -5 -11 -4 -6 4 4 6 12 8 18 5 13 -8
259 236 251 250 -3 6 -2 8 2 3 11 -9 46 23 39 35 -3 4 0 7 8 6 7 -2 12 3 10
10 -1 8 2 11 9 7 14 -9 120 95 112 109 -3 6 -2 8 2 3 11 -10 86 63 78 76 -3 6
-2 7 4 4 12 -8 418 401 461 465 34 49 39 64 20 52 -7 -4 -8 -3 -4 5 4 6 11 9
15 6 12 -7 63 93 55 107 -4 7 -3 8 4 4 15 -9 58 135 72 244 7 47 9 114 5 150
-9 88 -49 238 -81 302 -38 76 -126 190 -142 183 -7 -2 -11 -1 -8 4 12 19 -114
109 -221 156 -108 48 -190 66 -323 70 -84 3 -147 0 -192 -10z m309 -606 c34
-13 80 -55 99 -91 20 -39 17 -112 -6 -158 -34 -68 -128 -108 -200 -85 -121 38
-165 216 -74 296 53 46 122 61 181 38z m-482 -349 c102 -49 175 -158 175 -261
0 -66 -22 -146 -51 -183 -11 -14 -17 -30 -14 -36 4 -6 3 -10 -2 -8 -4 1 -117
-108 -249 -243 -293 -296 -301 -308 -313 -487 -13 -178 -40 -229 -200 -386
-50 -48 -88 -93 -84 -99 3 -6 1 -7 -6 -3 -7 5 -58 -38 -134 -112 -67 -66 -140
-137 -163 -158 -180 -171 -298 -291 -296 -299 2 -5 0 -7 -4 -3 -3 4 -50 -34
-103 -84 -178 -169 -244 -204 -366 -196 -55 3 -69 8 -95 33 -40 38 -40 77 -1
116 24 23 38 29 74 29 59 0 127 37 199 107 109 107 154 267 113 406 -9 31 -21
57 -27 57 -6 0 -8 3 -5 7 10 9 -24 44 -36 36 -6 -3 -7 -1 -3 6 4 6 -5 22 -23
37 -50 42 -85 126 -85 204 2 127 15 145 365 492 207 205 308 312 303 320 -4 7
-3 10 1 5 11 -10 86 63 78 76 -3 6 -2 7 4 4 13 -8 86 67 76 78 -5 4 -3 5 3 2
13 -7 160 138 156 154 -1 6 2 8 8 4 11 -7 77 63 72 78 -1 4 1 6 6 3 10 -6 165
147 157 157 -3 4 -2 5 1 3 3 -3 39 24 79 59 40 34 83 69 96 76 85 45 211 49
294 9z m-1890 -1789 c83 -38 135 -122 119 -194 -31 -148 -177 -221 -283 -143
-47 35 -79 82 -86 128 -15 86 41 185 120 213 54 19 82 18 130 -4z m799 -529
c3 -5 -1 -9 -9 -9 -8 0 -12 4 -9 9 3 4 7 8 9 8 2 0 6 -4 9 -8z"/>
<path d="M6500 3265 c-19 -19 -29 -35 -24 -35 13 0 69 58 63 65 -3 2 -21 -11
-39 -30z"/>
<path d="M4485 3280 c-3 -5 -1 -10 4 -10 6 0 11 5 11 10 0 6 -2 10 -4 10 -3 0
-8 -4 -11 -10z"/>
<path d="M6595 3270 c-3 -5 -2 -10 4 -10 5 0 13 5 16 10 3 6 2 10 -4 10 -5 0
-13 -4 -16 -10z"/>
<path d="M6526 3243 c-6 -14 -5 -15 5 -6 7 7 10 15 7 18 -3 3 -9 -2 -12 -12z"/>
<path d="M6530 3201 c0 -6 4 -13 10 -16 6 -3 7 1 4 9 -7 18 -14 21 -14 7z"/>
<path d="M4262 3143 c-11 -10 -27 -22 -36 -28 -9 -5 -17 -28 -19 -50 -3 -22
-2 -30 0 -17 2 12 8 22 13 22 5 0 7 6 4 14 -3 8 2 17 14 20 22 7 70 56 55 56
-5 0 -19 -8 -31 -17z"/>
<path d="M6435 3110 c-3 -5 -1 -10 4 -10 6 0 11 5 11 10 0 6 -2 10 -4 10 -3 0
-8 -4 -11 -10z"/>
<path d="M6147 3008 c-13 -8 -9 -10 41 -12 16 0 29 4 29 9 0 12 -53 14 -70 3z"/>
<path d="M6132 2969 c-8 -12 -8 -19 -2 -19 5 0 10 4 10 9 0 5 8 11 18 13 15 3
15 4 1 10 -9 4 -20 -1 -27 -13z"/>
<path d="M6078 2953 c6 -2 18 -2 25 0 6 3 1 5 -13 5 -14 0 -19 -2 -12 -5z"/>
<path d="M5960 2904 c-17 -9 -20 -14 -9 -14 9 0 22 7 29 15 15 18 13 18 -20
-1z"/>
<path d="M5885 2810 c3 -5 8 -10 11 -10 2 0 4 5 4 10 0 6 -5 10 -11 10 -5 0
-7 -4 -4 -10z"/>
<path d="M4902 2338 c5 -15 28 -18 29 -3 0 6 -7 12 -17 13 -10 3 -15 -1 -12
-10z"/>
<path d="M4950 2339 c0 -5 5 -7 10 -4 6 3 10 8 10 11 0 2 -4 4 -10 4 -5 0 -10
-5 -10 -11z"/>
<path d="M3857 3053 c-4 -3 -7 -11 -7 -17 0 -6 5 -5 12 2 6 6 9 14 7 17 -3 3
-9 2 -12 -2z"/>
<path d="M6450 1421 l0 -131 84 0 c82 0 86 1 119 33 43 40 56 92 36 144 -23
59 -57 77 -155 82 l-84 3 0 -131z"/>
<path d="M5803 1277 c-17 -40 -35 -80 -38 -90 -6 -15 1 -17 74 -17 72 0 80 2
75 18 -11 34 -69 161 -74 161 -3 1 -19 -32 -37 -72z"/>
</g>
</svg>
